<svg class="svg-icon" style="width: 1em; height: 1em;vertical-align: middle;fill: currentColor;overflow: hidden;" viewBox="0 0 1024 1024" version="1.1" xmlns="http://www.w3.org/2000/svg"><path d="M170.666667 128a42.666667 42.666667 0 0 0-42.666667 42.666667 725.333333 725.333333 0 0 0 725.333333 725.333333 42.666667 42.666667 0 0 0 42.666667-42.666667v-149.333333a42.666667 42.666667 0 0 0-42.666667-42.666667c-52.906667 0-104.533333-8.533333-152.32-24.32-14.933333-4.693333-31.573333-1.28-43.52 10.666667l-93.866666 93.866667a646.357333 646.357333 0 0 1-281.173334-281.173334l93.866667-94.293333c11.946667-11.52 15.36-28.16 10.666667-43.093333C371.2 275.2 362.666667 223.573333 362.666667 170.666667a42.666667 42.666667 0 0 0-42.666667-42.666667M682.666667 128v128h-128v85.333333h128v128h85.333333V341.333333h128V256h-128V128" fill="" /></svg>